<svg id="visual" viewBox="0 0 900 600" width="900" height="600" xmlns="http://www.w3.org/2000/svg" xmlns:xlink="http://www.w3.org/1999/xlink" version="1.1"><rect x="0" y="0" width="900" height="600" fill="#001220"></rect><path d="M0 416L21.5 414.7C43 413.3 86 410.7 128.8 414.3C171.7 418 214.3 428 257.2 434.8C300 441.7 343 445.3 385.8 443.3C428.7 441.3 471.3 433.7 514.2 422.3C557 411 600 396 642.8 386.2C685.7 376.3 728.3 371.7 771.2 366.8C814 362 857 357 878.5 354.5L900 352L900 601L878.5 601C857 601 814 601 771.2 601C728.3 601 685.7 601 642.8 601C600 601 557 601 514.2 601C471.3 601 428.7 601 385.8 601C343 601 300 601 257.2 601C214.3 601 171.7 601 128.8 601C86 601 43 601 21.5 601L0 601Z" fill="#c62368"></path><path d="M0 463L21.5 464.7C43 466.3 86 469.7 128.8 469.2C171.7 468.7 214.3 464.3 257.2 459C300 453.7 343 447.3 385.8 449.8C428.7 452.3 471.3 463.7 514.2 462.7C557 461.7 600 448.3 642.8 435.7C685.7 423 728.3 411 771.2 412C814 413 857 427 878.5 434L900 441L900 601L878.5 601C857 601 814 601 771.2 601C728.3 601 685.7 601 642.8 601C600 601 557 601 514.2 601C471.3 601 428.7 601 385.8 601C343 601 300 601 257.2 601C214.3 601 171.7 601 128.8 601C86 601 43 601 21.5 601L0 601Z" fill="#d53867"></path><path d="M0 469L21.5 470C43 471 86 473 128.8 469.5C171.7 466 214.3 457 257.2 451.5C300 446 343 444 385.8 446.3C428.7 448.7 471.3 455.3 514.2 458.2C557 461 600 460 642.8 466.2C685.7 472.3 728.3 485.7 771.2 492.2C814 498.7 857 498.3 878.5 498.2L900 498L900 601L878.5 601C857 601 814 601 771.2 601C728.3 601 685.7 601 642.8 601C600 601 557 601 514.2 601C471.3 601 428.7 601 385.8 601C343 601 300 601 257.2 601C214.3 601 171.7 601 128.8 601C86 601 43 601 21.5 601L0 601Z" fill="#e34c67"></path><path d="M0 536L21.5 532.8C43 529.7 86 523.3 128.8 518.3C171.7 513.3 214.3 509.7 257.2 509.2C300 508.7 343 511.3 385.8 516.7C428.7 522 471.3 530 514.2 534.5C557 539 600 540 642.8 531.8C685.7 523.7 728.3 506.3 771.2 497C814 487.7 857 486.3 878.5 485.7L900 485L900 601L878.5 601C857 601 814 601 771.2 601C728.3 601 685.7 601 642.8 601C600 601 557 601 514.2 601C471.3 601 428.7 601 385.8 601C343 601 300 601 257.2 601C214.3 601 171.7 601 128.8 601C86 601 43 601 21.5 601L0 601Z" fill="#ef5f67"></path><path d="M0 562L21.5 562.5C43 563 86 564 128.8 565.7C171.7 567.3 214.3 569.7 257.2 566.8C300 564 343 556 385.8 548.2C428.7 540.3 471.3 532.7 514.2 529.3C557 526 600 527 642.8 533.2C685.7 539.3 728.3 550.7 771.2 554C814 557.3 857 552.7 878.5 550.3L900 548L900 601L878.5 601C857 601 814 601 771.2 601C728.3 601 685.7 601 642.8 601C600 601 557 601 514.2 601C471.3 601 428.7 601 385.8 601C343 601 300 601 257.2 601C214.3 601 171.7 601 128.8 601C86 601 43 601 21.5 601L0 601Z" fill="#fa7268"></path></svg>